<svg width="440" height="202" viewBox="0 0 440 202" fill="none" xmlns="http://www.w3.org/2000/svg">
<path d="M53.2833 95.6466C53.7852 94.3707 55.2314 93.7348 56.4658 94.3316C60.5038 96.2837 64.1079 99.0455 67.0493 102.454C70.5323 106.491 72.9815 111.315 74.1856 116.509C75.3897 121.703 75.3126 127.112 73.9611 132.269C72.6095 137.427 70.024 142.178 66.4274 146.114C62.8308 150.05 58.3309 153.053 53.3157 154.862C48.3005 156.672 42.9205 157.235 37.6392 156.503C32.358 155.771 27.334 153.766 23.0003 150.66C19.3407 148.037 16.266 144.695 13.9587 140.849C13.2534 139.674 13.7566 138.176 14.9822 137.561V137.561C16.2077 136.947 17.6902 137.449 18.4113 138.615C20.3471 141.746 22.8875 144.47 25.8926 146.624C29.5719 149.261 33.8373 150.964 38.321 151.585C42.8048 152.207 47.3725 151.729 51.6304 150.192C55.8883 148.656 59.7086 146.107 62.7622 142.765C65.8157 139.423 68.0108 135.389 69.1583 131.011C70.3058 126.632 70.3712 122.04 69.3489 117.63C68.3266 113.22 66.2473 109.125 63.2902 105.698C60.8749 102.899 57.9333 100.613 54.6412 98.967C53.415 98.3537 52.7814 96.9224 53.2833 95.6466V95.6466Z" fill="white"/>
<path d="M53.6958 117.641C53.8747 119.111 52.8274 120.458 51.3478 120.526C43.3685 120.888 35.4702 118.541 28.9605 113.822C21.7245 108.577 16.7395 100.79 15.0054 92.0226C13.2714 83.2554 14.9167 74.1568 19.6112 66.552C23.8344 59.7105 30.2445 54.5333 37.761 51.8309C39.1548 51.3298 40.6363 52.1772 41.0305 53.6048V53.6048C41.4247 55.0324 40.5813 56.498 39.1945 57.0179C32.9811 59.3472 27.687 63.6801 24.175 69.3693C20.1916 75.8222 18.7955 83.5427 20.2669 90.9819C21.7383 98.4212 25.9682 105.029 32.1082 109.48C37.5215 113.404 44.0665 115.395 50.6988 115.183C52.1791 115.136 53.5169 116.17 53.6958 117.641V117.641Z" fill="white"/>
<path d="M153.814 117.296C155.157 117.508 156.081 118.772 155.798 120.102C153.795 129.509 148.91 138.083 141.793 144.613C134.07 151.699 124.174 155.959 113.719 156.699C103.264 157.439 92.866 154.615 84.2217 148.688C76.256 143.226 70.2121 135.425 66.9041 126.394C66.4362 125.117 67.1728 123.736 68.4731 123.337V123.337C69.7734 122.937 71.1443 123.671 71.6203 124.945C74.5959 132.913 79.9602 139.793 87.0074 144.625C94.7335 149.923 104.026 152.447 113.371 151.785C122.715 151.124 131.56 147.316 138.463 140.983C144.759 135.206 149.101 127.639 150.925 119.332C151.216 118.003 152.47 117.084 153.814 117.296V117.296Z" fill="white"/>
<path d="M187.927 67.2394C187.57 65.9066 186.197 65.1092 184.885 65.5369C178.663 67.5657 172.926 70.8805 168.053 75.2761C162.56 80.2303 158.319 86.4162 155.68 93.3263C153.04 100.237 152.077 107.674 152.868 115.029C153.659 122.383 156.183 129.446 160.232 135.636C164.281 141.827 169.74 146.969 176.161 150.641C182.583 154.314 189.783 156.411 197.172 156.762C204.561 157.113 211.927 155.707 218.668 152.659C224.648 149.956 229.984 146.028 234.336 141.14C235.254 140.11 235.073 138.533 233.995 137.671V137.671C232.917 136.81 231.35 136.991 230.426 138.016C226.572 142.29 221.87 145.728 216.609 148.106C210.589 150.828 204.009 152.084 197.409 151.771C190.809 151.458 184.378 149.584 178.642 146.304C172.907 143.024 168.03 138.431 164.414 132.901C160.797 127.372 158.543 121.064 157.836 114.494C157.129 107.925 157.99 101.282 160.348 95.1094C162.705 88.9371 166.493 83.4118 171.399 78.9867C175.686 75.1202 180.721 72.19 186.181 70.371C187.49 69.9349 188.284 68.5722 187.927 67.2394V67.2394Z" fill="white"/>
<path d="M300.947 138.608C302.003 139.541 302.108 141.158 301.119 142.161C294.578 148.794 286.174 153.318 276.993 155.111C266.975 157.068 256.592 155.665 247.453 151.12C238.314 146.575 230.93 139.141 226.447 129.972C221.963 120.803 220.63 110.41 222.654 100.406C224.678 90.4022 229.946 81.3454 237.641 74.6404C245.337 67.9354 255.03 63.9567 265.217 63.3215C275.404 62.6863 285.516 65.4299 293.985 71.127C301.747 76.3485 307.731 83.7835 311.179 92.4372C311.7 93.7457 310.975 95.1951 309.64 95.6437V95.6437C308.305 96.0924 306.866 95.3701 306.336 94.0652C303.251 86.4745 297.968 79.9539 291.138 75.3592C283.6 70.2888 274.601 67.847 265.534 68.4123C256.468 68.9777 247.841 72.5186 240.992 78.4861C234.143 84.4536 229.454 92.5141 227.653 101.418C225.852 110.321 227.038 119.571 231.029 127.731C235.019 135.892 241.591 142.508 249.725 146.553C257.858 150.598 267.099 151.847 276.015 150.105C284.094 148.527 291.497 144.573 297.289 138.778C298.285 137.782 299.891 137.676 300.947 138.608V138.608Z" fill="white"/>
<path d="M306.272 105.32C304.871 105.182 303.839 103.932 304.053 102.54C304.932 96.8357 306.87 91.3376 309.774 86.3322C313.105 80.5904 317.63 75.6308 323.043 71.7886C328.456 67.9465 334.631 65.3113 341.151 64.0613C346.834 62.9716 352.663 62.9567 358.339 64.0093C359.723 64.2662 360.562 65.6527 360.23 67.0214V67.0214C359.897 68.39 358.519 69.2217 357.132 68.9743C352.169 68.0885 347.077 68.1186 342.111 69.0708C336.309 70.1832 330.813 72.5285 325.995 75.9481C321.178 79.3676 317.15 83.7817 314.186 88.8919C311.648 93.2656 309.94 98.062 309.138 103.04C308.914 104.431 307.674 105.457 306.272 105.32V105.32Z" fill="white"/>
<path d="M419.629 138.608C420.684 139.541 420.789 141.158 419.8 142.161C413.259 148.794 404.856 153.318 395.674 155.111C385.657 157.068 375.274 155.665 366.135 151.12C356.996 146.575 349.612 139.141 345.128 129.972C340.644 120.803 339.311 110.41 341.335 100.406C343.359 90.4022 348.627 81.3454 356.323 74.6404C364.019 67.9354 373.711 63.9567 383.898 63.3215C394.085 62.6863 404.197 65.4299 412.666 71.127C420.428 76.3485 426.412 83.7835 429.86 92.4372C430.382 93.7457 429.657 95.1951 428.321 95.6437V95.6437C426.986 96.0924 425.548 95.3701 425.017 94.0652C421.933 86.4745 416.649 79.9539 409.819 75.3592C402.282 70.2888 393.282 67.847 384.216 68.4123C375.149 68.9777 366.523 72.5186 359.674 78.4861C352.825 84.4536 348.136 92.5141 346.335 101.418C344.533 110.321 345.72 119.571 349.71 127.731C353.701 135.892 360.273 142.508 368.406 146.553C376.54 150.598 385.781 151.847 394.696 150.105C402.776 148.527 410.178 144.573 415.971 138.778C416.967 137.782 418.573 137.676 419.629 138.608V138.608Z" fill="white"/>
<circle cx="44.6837" cy="52.2716" r="10.9602" fill="white"/>
<circle cx="72.5057" cy="130.679" r="10.9602" fill="white"/>
<circle cx="194.754" cy="67.4472" r="10.9602" fill="white"/>
<circle cx="305.199" cy="130.679" r="10.9602" fill="white"/>
<circle cx="423.037" cy="130.679" r="10.9602" fill="white"/>
<circle cx="366.744" cy="67.4472" r="10.9602" fill="white"/>
<circle cx="10.9602" cy="130.679" r="10.9602" fill="white"/>
<rect x="150.913" width="5.05854" height="155.972" rx="2.52927" fill="white"/>
<path d="M308.71 180.24C309.126 180.24 309.47 180.384 309.742 180.672C310.03 180.944 310.174 181.264 310.174 181.632C310.174 182.032 310.03 182.36 309.742 182.616C309.47 182.872 309.126 183 308.71 183H300.67C300.254 183 299.902 182.864 299.614 182.592C299.342 182.304 299.206 181.952 299.206 181.536V167.664C299.206 167.248 299.342 166.904 299.614 166.632C299.902 166.344 300.254 166.2 300.67 166.2H308.71C309.126 166.2 309.47 166.336 309.742 166.608C310.03 166.864 310.174 167.2 310.174 167.616C310.174 168.016 310.038 168.344 309.766 168.6C309.494 168.84 309.142 168.96 308.71 168.96H302.206V173.04H307.63C308.046 173.04 308.39 173.176 308.662 173.448C308.95 173.704 309.094 174.04 309.094 174.456C309.094 174.856 308.958 175.184 308.686 175.44C308.414 175.68 308.062 175.8 307.63 175.8H302.206V180.24H308.71ZM319.565 169.92C321.197 169.92 322.325 170.408 322.949 171.384C323.573 172.344 323.885 173.68 323.885 175.392V181.536C323.885 181.952 323.749 182.304 323.477 182.592C323.205 182.864 322.861 183 322.445 183C322.029 183 321.685 182.864 321.413 182.592C321.141 182.304 321.005 181.952 321.005 181.536V175.392C321.005 174.512 320.821 173.824 320.453 173.328C320.085 172.816 319.453 172.56 318.557 172.56C317.629 172.56 316.901 172.832 316.373 173.376C315.845 173.904 315.581 174.576 315.581 175.392V181.536C315.581 181.952 315.445 182.304 315.173 182.592C314.901 182.864 314.557 183 314.141 183C313.725 183 313.381 182.864 313.109 182.592C312.837 182.304 312.701 181.952 312.701 181.536V171.624C312.701 171.208 312.837 170.864 313.109 170.592C313.381 170.304 313.725 170.16 314.141 170.16C314.557 170.16 314.901 170.304 315.173 170.592C315.445 170.864 315.581 171.208 315.581 171.624V172.032C316.013 171.456 316.573 170.96 317.261 170.544C317.965 170.128 318.733 169.92 319.565 169.92ZM337.63 169.92C338.046 169.92 338.39 170.056 338.661 170.328C338.934 170.6 339.07 170.952 339.07 171.384V182.064C339.07 184.016 338.462 185.456 337.246 186.384C336.046 187.328 334.518 187.8 332.662 187.8C332.182 187.8 331.518 187.72 330.67 187.56C329.838 187.4 329.246 187.24 328.894 187.08C328.11 186.744 327.718 186.28 327.718 185.688C327.718 185.576 327.742 185.448 327.79 185.304C327.886 184.952 328.046 184.68 328.27 184.488C328.51 184.312 328.766 184.224 329.038 184.224C329.198 184.224 329.35 184.248 329.494 184.296C329.558 184.312 329.95 184.456 330.67 184.728C331.406 185.016 332.07 185.16 332.662 185.16C333.846 185.16 334.726 184.92 335.302 184.44C335.894 183.976 336.19 183.312 336.19 182.448V181.296C335.838 181.792 335.302 182.24 334.582 182.64C333.878 183.04 333.118 183.24 332.302 183.24C331.182 183.24 330.158 182.96 329.23 182.4C328.318 181.824 327.598 181.032 327.07 180.024C326.542 179.016 326.278 177.872 326.278 176.592C326.278 175.312 326.534 174.168 327.046 173.16C327.574 172.136 328.286 171.344 329.182 170.784C330.094 170.208 331.102 169.92 332.206 169.92C333.022 169.92 333.782 170.088 334.486 170.424C335.19 170.76 335.758 171.168 336.19 171.648V171.384C336.19 170.968 336.326 170.624 336.598 170.352C336.87 170.064 337.214 169.92 337.63 169.92ZM332.662 180.6C333.734 180.6 334.606 180.224 335.278 179.472C335.966 178.704 336.31 177.744 336.31 176.592C336.31 175.44 335.966 174.48 335.278 173.712C334.606 172.944 333.734 172.56 332.662 172.56C331.59 172.56 330.718 172.944 330.046 173.712C329.374 174.48 329.038 175.44 329.038 176.592C329.038 177.744 329.374 178.704 330.046 179.472C330.718 180.224 331.59 180.6 332.662 180.6ZM344.897 181.536C344.897 181.952 344.761 182.304 344.489 182.592C344.217 182.864 343.873 183 343.457 183C343.041 183 342.697 182.864 342.425 182.592C342.153 182.304 342.017 181.952 342.017 181.536V171.624C342.017 171.208 342.153 170.864 342.425 170.592C342.697 170.304 343.041 170.16 343.457 170.16C343.873 170.16 344.217 170.304 344.489 170.592C344.761 170.864 344.897 171.208 344.897 171.624V181.536ZM343.433 168.6C342.889 168.6 342.505 168.512 342.281 168.336C342.057 168.16 341.945 167.848 341.945 167.4V166.944C341.945 166.496 342.065 166.184 342.305 166.008C342.545 165.832 342.929 165.744 343.457 165.744C344.017 165.744 344.409 165.832 344.633 166.008C344.857 166.184 344.969 166.496 344.969 166.944V167.4C344.969 167.864 344.849 168.184 344.609 168.36C344.385 168.52 343.993 168.6 343.433 168.6ZM354.721 169.92C356.353 169.92 357.481 170.408 358.105 171.384C358.729 172.344 359.041 173.68 359.041 175.392V181.536C359.041 181.952 358.905 182.304 358.633 182.592C358.361 182.864 358.017 183 357.601 183C357.185 183 356.841 182.864 356.569 182.592C356.297 182.304 356.161 181.952 356.161 181.536V175.392C356.161 174.512 355.977 173.824 355.609 173.328C355.241 172.816 354.609 172.56 353.713 172.56C352.785 172.56 352.057 172.832 351.529 173.376C351.001 173.904 350.737 174.576 350.737 175.392V181.536C350.737 181.952 350.601 182.304 350.329 182.592C350.057 182.864 349.713 183 349.297 183C348.881 183 348.537 182.864 348.265 182.592C347.993 182.304 347.857 181.952 347.857 181.536V171.624C347.857 171.208 347.993 170.864 348.265 170.592C348.537 170.304 348.881 170.16 349.297 170.16C349.713 170.16 350.057 170.304 350.329 170.592C350.601 170.864 350.737 171.208 350.737 171.624V172.032C351.169 171.456 351.729 170.96 352.417 170.544C353.121 170.128 353.889 169.92 354.721 169.92ZM373.674 176.28C373.658 176.664 373.506 176.976 373.218 177.216C372.93 177.456 372.594 177.576 372.21 177.576H364.29C364.482 178.52 364.922 179.264 365.61 179.808C366.298 180.336 367.074 180.6 367.938 180.6C368.594 180.6 369.106 180.544 369.474 180.432C369.842 180.304 370.13 180.176 370.338 180.048C370.562 179.904 370.714 179.808 370.794 179.76C371.082 179.616 371.354 179.544 371.61 179.544C371.946 179.544 372.234 179.664 372.474 179.904C372.714 180.144 372.834 180.424 372.834 180.744C372.834 181.176 372.61 181.568 372.162 181.92C371.714 182.288 371.114 182.6 370.362 182.856C369.61 183.112 368.85 183.24 368.082 183.24C366.738 183.24 365.562 182.96 364.554 182.4C363.562 181.84 362.794 181.072 362.25 180.096C361.706 179.104 361.434 177.992 361.434 176.76C361.434 175.384 361.722 174.176 362.298 173.136C362.874 172.096 363.634 171.304 364.578 170.76C365.522 170.2 366.53 169.92 367.602 169.92C368.658 169.92 369.65 170.208 370.578 170.784C371.522 171.36 372.274 172.136 372.834 173.112C373.394 174.088 373.674 175.144 373.674 176.28ZM367.602 172.56C365.746 172.56 364.65 173.432 364.314 175.176H370.602V175.008C370.538 174.336 370.21 173.76 369.618 173.28C369.026 172.8 368.354 172.56 367.602 172.56ZM387.596 176.28C387.58 176.664 387.428 176.976 387.14 177.216C386.852 177.456 386.516 177.576 386.132 177.576H378.212C378.404 178.52 378.844 179.264 379.532 179.808C380.22 180.336 380.996 180.6 381.86 180.6C382.516 180.6 383.028 180.544 383.396 180.432C383.764 180.304 384.052 180.176 384.26 180.048C384.484 179.904 384.636 179.808 384.716 179.76C385.004 179.616 385.276 179.544 385.532 179.544C385.868 179.544 386.156 179.664 386.396 179.904C386.636 180.144 386.756 180.424 386.756 180.744C386.756 181.176 386.532 181.568 386.084 181.92C385.636 182.288 385.036 182.6 384.284 182.856C383.532 183.112 382.772 183.24 382.004 183.24C380.66 183.24 379.484 182.96 378.476 182.4C377.484 181.84 376.716 181.072 376.172 180.096C375.628 179.104 375.356 177.992 375.356 176.76C375.356 175.384 375.644 174.176 376.22 173.136C376.796 172.096 377.556 171.304 378.5 170.76C379.444 170.2 380.452 169.92 381.524 169.92C382.58 169.92 383.572 170.208 384.5 170.784C385.444 171.36 386.196 172.136 386.756 173.112C387.316 174.088 387.596 175.144 387.596 176.28ZM381.524 172.56C379.668 172.56 378.572 173.432 378.236 175.176H384.524V175.008C384.46 174.336 384.132 173.76 383.54 173.28C382.948 172.8 382.276 172.56 381.524 172.56ZM396.67 169.92C397.15 169.92 397.55 170.056 397.87 170.328C398.206 170.6 398.374 170.92 398.374 171.288C398.374 171.784 398.246 172.16 397.99 172.416C397.734 172.656 397.43 172.776 397.078 172.776C396.838 172.776 396.566 172.72 396.262 172.608C396.214 172.592 396.102 172.56 395.926 172.512C395.766 172.464 395.59 172.44 395.398 172.44C394.982 172.44 394.582 172.568 394.198 172.824C393.814 173.08 393.494 173.472 393.238 174C392.998 174.512 392.878 175.128 392.878 175.848V181.536C392.878 181.952 392.742 182.304 392.47 182.592C392.198 182.864 391.854 183 391.438 183C391.022 183 390.678 182.864 390.406 182.592C390.134 182.304 389.998 181.952 389.998 181.536V171.624C389.998 171.208 390.134 170.864 390.406 170.592C390.678 170.304 391.022 170.16 391.438 170.16C391.854 170.16 392.198 170.304 392.47 170.592C392.742 170.864 392.878 171.208 392.878 171.624V171.936C393.246 171.28 393.774 170.784 394.462 170.448C395.15 170.096 395.886 169.92 396.67 169.92ZM403.116 181.536C403.116 181.952 402.98 182.304 402.708 182.592C402.436 182.864 402.092 183 401.676 183C401.26 183 400.916 182.864 400.644 182.592C400.372 182.304 400.236 181.952 400.236 181.536V171.624C400.236 171.208 400.372 170.864 400.644 170.592C400.916 170.304 401.26 170.16 401.676 170.16C402.092 170.16 402.436 170.304 402.708 170.592C402.98 170.864 403.116 171.208 403.116 171.624V181.536ZM401.652 168.6C401.108 168.6 400.724 168.512 400.5 168.336C400.276 168.16 400.164 167.848 400.164 167.4V166.944C400.164 166.496 400.284 166.184 400.524 166.008C400.764 165.832 401.148 165.744 401.676 165.744C402.236 165.744 402.628 165.832 402.852 166.008C403.076 166.184 403.188 166.496 403.188 166.944V167.4C403.188 167.864 403.068 168.184 402.828 168.36C402.604 168.52 402.212 168.6 401.652 168.6ZM412.94 169.92C414.572 169.92 415.7 170.408 416.324 171.384C416.948 172.344 417.26 173.68 417.26 175.392V181.536C417.26 181.952 417.124 182.304 416.852 182.592C416.58 182.864 416.236 183 415.82 183C415.404 183 415.06 182.864 414.788 182.592C414.516 182.304 414.38 181.952 414.38 181.536V175.392C414.38 174.512 414.196 173.824 413.828 173.328C413.46 172.816 412.828 172.56 411.932 172.56C411.004 172.56 410.276 172.832 409.748 173.376C409.22 173.904 408.956 174.576 408.956 175.392V181.536C408.956 181.952 408.82 182.304 408.548 182.592C408.276 182.864 407.932 183 407.516 183C407.1 183 406.756 182.864 406.484 182.592C406.212 182.304 406.076 181.952 406.076 181.536V171.624C406.076 171.208 406.212 170.864 406.484 170.592C406.756 170.304 407.1 170.16 407.516 170.16C407.932 170.16 408.276 170.304 408.548 170.592C408.82 170.864 408.956 171.208 408.956 171.624V172.032C409.388 171.456 409.948 170.96 410.636 170.544C411.34 170.128 412.108 169.92 412.94 169.92ZM431.005 169.92C431.421 169.92 431.765 170.056 432.036 170.328C432.309 170.6 432.445 170.952 432.445 171.384V182.064C432.445 184.016 431.837 185.456 430.621 186.384C429.421 187.328 427.893 187.8 426.037 187.8C425.557 187.8 424.893 187.72 424.045 187.56C423.213 187.4 422.621 187.24 422.269 187.08C421.485 186.744 421.093 186.28 421.093 185.688C421.093 185.576 421.117 185.448 421.165 185.304C421.261 184.952 421.421 184.68 421.645 184.488C421.885 184.312 422.141 184.224 422.413 184.224C422.573 184.224 422.725 184.248 422.869 184.296C422.933 184.312 423.325 184.456 424.045 184.728C424.781 185.016 425.445 185.16 426.037 185.16C427.221 185.16 428.101 184.92 428.677 184.44C429.269 183.976 429.565 183.312 429.565 182.448V181.296C429.213 181.792 428.677 182.24 427.957 182.64C427.253 183.04 426.493 183.24 425.677 183.24C424.557 183.24 423.533 182.96 422.605 182.4C421.693 181.824 420.973 181.032 420.445 180.024C419.917 179.016 419.653 177.872 419.653 176.592C419.653 175.312 419.909 174.168 420.421 173.16C420.949 172.136 421.661 171.344 422.557 170.784C423.469 170.208 424.477 169.92 425.581 169.92C426.397 169.92 427.157 170.088 427.861 170.424C428.565 170.76 429.133 171.168 429.565 171.648V171.384C429.565 170.968 429.701 170.624 429.973 170.352C430.245 170.064 430.589 169.92 431.005 169.92ZM426.037 180.6C427.109 180.6 427.981 180.224 428.653 179.472C429.341 178.704 429.685 177.744 429.685 176.592C429.685 175.44 429.341 174.48 428.653 173.712C427.981 172.944 427.109 172.56 426.037 172.56C424.965 172.56 424.093 172.944 423.421 173.712C422.749 174.48 422.413 175.44 422.413 176.592C422.413 177.744 422.749 178.704 423.421 179.472C424.093 180.224 424.965 180.6 426.037 180.6Z" fill="white"/>
</svg>
