<svg width="381" height="142" viewBox="0 0 381 142" fill="none" xmlns="http://www.w3.org/2000/svg">
<g clip-path="url(#clip0)">
<path d="M115.893 72.1655C115.893 72.1655 116.824 81.1162 116.824 83.9133C116.824 86.7104 116.824 98.8312 118.688 102.561C120.551 106.29 130.799 129.599 130.799 129.599L125.209 132.397C125.209 132.397 105.645 100.696 105.645 96.0341C105.645 91.3723 103.782 84.8457 103.782 84.8457H102.85C102.85 84.8457 97.2606 97.8989 96.329 103.493C95.3973 109.087 94.4657 129.599 93.5341 130.532C92.6025 131.464 88.876 131.464 88.876 131.464C88.876 131.464 84.218 108.155 87.0128 96.9665C89.8077 85.7781 92.6025 77.3867 92.6025 77.3867L106.577 68.9954L115.893 72.1655Z" fill="#44355B"/>
<path d="M78.4461 35.4301L50.4977 37.2948L77.5145 43.8214" fill="#EEC5AF"/>
<path d="M92.0435 79.2515C92.0435 79.2515 108.44 80.1839 111.235 78.3191C114.03 76.4544 116.359 74.9626 116.359 74.9626L115.893 70.8601H106.577L93.5341 75.522L92.0435 79.2515Z" fill="#CCCCCC"/>
<path d="M77.6967 24.2416C77.6967 24.2416 74.9018 23.3093 74.9018 20.5121C74.9018 17.715 74.9018 10.2561 80.4915 12.1208C86.0812 13.9856 97.2606 9.3237 100.987 17.715C104.713 26.1064 100.987 32.633 106.577 34.4977C112.166 36.3624 115.893 46.6185 114.03 48.4833C112.166 50.348 107.508 52.2127 107.508 52.2127L87.9444 37.2948L80.4915 25.174L77.6967 24.2416Z" fill="url(#paint0_linear)"/>
<path d="M89.5282 33.0991C89.5282 33.0991 97.2606 32.7262 99.1238 35.5233C100.987 38.3204 118.688 70.9534 118.688 70.9534C118.688 70.9534 114.961 75.6152 114.03 75.6152C113.098 75.6152 92.6025 77.48 92.6025 77.48C92.6025 77.48 90.7393 71.8857 90.7393 70.9534C90.7393 70.021 76.765 43.9146 76.765 43.9146C76.765 43.9146 77.6967 36.4557 77.6967 35.5233C77.6967 34.5909 89.5282 33.0991 89.5282 33.0991Z" fill="#CFC1E6"/>
<path d="M127.072 135.194C127.072 135.194 118.688 140.788 119.619 141.72C120.551 142.653 128.935 140.788 131.73 138.923C134.525 137.058 134.525 134.261 133.594 133.329C132.662 132.397 129.867 133.329 129.867 133.329L127.072 135.194Z" fill="#483366"/>
<path d="M88.876 132.397C86.9196 132.583 84.9632 132.77 82.9137 132.956C81.0505 133.142 79.3736 133.049 77.883 134.634C77.6967 134.821 75.7403 137.058 76.765 137.058C78.6283 137.058 90.7393 137.058 92.6025 137.058C94.4657 137.058 94.4657 132.397 94.4657 132.397H88.876Z" fill="#483366"/>
<path d="M77.7898 25.174C77.7898 25.3605 77.883 25.5469 77.883 25.5469C77.9761 26.0131 78.1625 26.4793 78.3488 26.8523C78.7214 27.7846 79.1872 28.6238 79.6531 29.4629C80.212 30.3953 81.1358 31.9312 82.4401 31.9312C85.2349 31.9312 87.6863 30.8042 87.6863 30.8042C87.6863 30.8042 86.1744 27.8779 87.106 26.9455C88.0376 26.0131 87.106 25.0808 86.1744 25.0808C85.2427 25.0808 85.2427 26.0131 85.2427 26.0131C85.2427 26.0131 85.2427 23.216 84.3111 23.216C83.3795 23.216 79.6531 24.1484 78.7214 24.1484C77.7898 24.1484 77.7898 24.1484 77.7898 24.1484C77.6035 24.3349 77.6967 24.801 77.7898 25.174Z" fill="#EEC5AF"/>
<path d="M83.8453 31.7006C83.8453 31.7006 85.2427 33.6586 84.3111 33.6586C83.3795 33.6586 83.3795 35.5233 85.2427 35.5233C87.106 35.5233 90.8324 34.5909 90.8324 33.6586C90.8324 32.7262 89.9008 33.6586 88.9692 32.7262C88.0376 31.7938 87.6863 30.8042 87.6863 30.8042L83.8453 31.7006Z" fill="#EEC5AF"/>
<path d="M86.0812 60.1379C86.0812 60.1379 94.4657 52.8654 94.4657 49.2291C94.4657 45.5929 94.4657 39.2528 95.3973 41.9567C96.329 44.6605 99.1238 49.2291 97.2606 55.5693C95.3973 61.9094 89.8077 62.8418 91.6709 66.478C93.0683 69.2751 94.5589 72.6316 97.0742 74.5896C99.0306 76.1746 102.571 75.522 104.9 75.522C106.67 75.522 108.533 75.522 110.396 75.522C108.813 76.0814 107.229 76.6408 105.552 77.2003C104.434 77.5732 103.409 77.8529 102.291 78.1326C99.7759 78.5988 97.0742 78.3191 94.5589 78.3191C94.1862 78.3191 92.9751 78.5056 92.6957 78.2259C92.6025 78.1326 92.5093 77.9462 92.4162 77.7597C92.1367 76.4544 92.1367 75.0558 91.764 73.7505C90.8324 70.9534 89.9008 69.0886 88.9692 67.2239C88.4102 66.105 87.9444 64.7997 87.1991 63.8674C86.7333 63.3079 85.7085 62.2823 85.7085 61.5364C85.6154 60.6041 86.0812 60.1379 86.0812 60.1379Z" fill="#AD9CC0"/>
<g filter="url(#filter0_d)">
<path d="M65 49.6138C73.4966 56.8469 86.4345 61.895 99.2759 61.0662C116.945 59.8607 132.972 49.0864 148.034 42.6068C170.338 33.038 191.579 21.887 214.076 12.7703C231.938 5.46186 255.207 -0.188987 271.428 12.6196C282.434 21.2842 289.097 31.9832 295.952 42.7575C304.448 56.0181 314.972 77.7927 338.724 74.7036C373.483 70.1829 398.586 39.2916 415 37.0313" stroke="#FECE5F" stroke-width="5" stroke-miterlimit="10"/>
</g>
<path d="M39.3945 20.317C39.4563 20.0697 44.708 21.3679 45.0787 21.4297C52.5547 23.2225 61.8842 26.2517 66.4563 33.0518C72.6965 42.4484 71.0284 59.8197 59.1656 64.2089C51.6279 67.0526 42.9162 66.5581 35.502 63.7762C34.946 63.5907 26.0489 59.8815 25.8018 60.4997C25.8018 60.4997 39.3945 20.3788 39.3945 20.317Z" fill="url(#paint1_linear)"/>
<path d="M72.9454 55.2896L54.4063 54.0775C54.4063 54.0775 52.5431 52.2127 50.6798 52.2127C48.8166 52.2127 46.0218 52.2127 46.0218 53.1451C46.0218 54.0775 46.0218 54.0775 46.0218 54.0775L58.1327 57.807L72.9454 55.2896Z" fill="#DDAA8F"/>
<path d="M83.2864 51.2804C83.2864 51.2804 87.9444 55.0098 89.8077 55.0098C91.6709 55.0098 89.8077 59.6717 87.0128 60.6041C84.218 61.5364 54.4063 59.6717 54.4063 59.6717C54.4063 59.6717 49.7482 61.5364 48.8166 60.6041C47.885 59.6717 45.0901 55.0098 46.0218 54.0775C46.9534 53.1451 49.7482 55.0098 49.7482 55.0098C49.7482 55.0098 49.7482 53.1451 50.6798 53.1451C51.6114 53.1451 53.4747 55.0098 54.4063 55.0098C55.3379 55.0098 77.2309 55.476 79.0941 54.5437C80.9573 53.6113 83.2864 51.2804 83.2864 51.2804Z" fill="#EEC5AF"/>
<path d="M126.047 132.024L127.072 135.194L131.73 133.329L129.96 130.066L126.047 132.024Z" fill="#FFCEA8"/>
<path d="M88.876 131.464L87.9444 133.329H93.5341V130.532L88.876 131.464Z" fill="#FFCEA8"/>
<path d="M83.2863 49.4156C83.2863 49.4156 85.1496 43.8214 86.0812 41.9567C87.0128 40.0919 87.0128 40.0919 87.0128 40.0919C87.0128 40.0919 85.1496 43.8214 85.1496 45.6861C85.1496 47.5509 84.218 50.348 84.218 50.348L83.2863 49.4156Z" fill="#AD9CC0"/>
<path d="M31.358 46.4831L24.3427 44.1109L20.9848 54.0573L28.0001 56.4295L31.358 46.4831Z" fill="#7F4E90"/>
<path d="M37.528 27.3376L30.5127 24.9654L27.1548 34.9118L34.1701 37.284L37.528 27.3376Z" fill="#7F4E90"/>
</g>
<defs>
<filter id="filter0_d" x="53.3795" y="-3.49974" width="371.962" height="95.0003" filterUnits="userSpaceOnUse" color-interpolation-filters="sRGB">
<feFlood flood-opacity="0" result="BackgroundImageFix"/>
<feColorMatrix in="SourceAlpha" type="matrix" values="0 0 0 0 0 0 0 0 0 0 0 0 0 0 0 0 0 0 127 0"/>
<feOffset dy="4"/>
<feGaussianBlur stdDeviation="5"/>
<feColorMatrix type="matrix" values="0 0 0 0 0 0 0 0 0 0 0 0 0 0 0 0 0 0 0.5 0"/>
<feBlend mode="normal" in2="BackgroundImageFix" result="effect1_dropShadow"/>
<feBlend mode="normal" in="SourceGraphic" in2="effect1_dropShadow" result="shape"/>
</filter>
<linearGradient id="paint0_linear" x1="94.4314" y1="14.2751" x2="118.14" y2="71.7098" gradientUnits="userSpaceOnUse">
<stop stop-color="#483366"/>
<stop offset="1" stop-color="#EEC5AF"/>
</linearGradient>
<linearGradient id="paint1_linear" x1="5.2036" y1="16.8299" x2="69.7084" y2="29.6316" gradientUnits="userSpaceOnUse">
<stop stop-color="#2C0B5F"/>
<stop offset="0.364583" stop-color="#5322A0"/>
<stop offset="1" stop-color="#FECE5F"/>
</linearGradient>
<clipPath id="clip0">
<rect width="702" height="142" fill="white"/>
</clipPath>
</defs>
</svg>
