<svg width="133" height="43" viewBox="0 0 133 43" fill="none" xmlns="http://www.w3.org/2000/svg">
<path d="M14.2574 24.5559C15.5628 25.0695 16.7237 25.8928 17.64 26.9548C18.5564 28.0169 19.2007 29.2858 19.5175 30.6523C19.8343 32.0188 19.814 33.4419 19.4584 34.7988C19.1029 36.1557 18.4226 37.4058 17.4764 38.4413C16.5302 39.4768 15.3463 40.2667 14.0268 40.7429C12.7074 41.219 11.2919 41.3672 9.9025 41.1745C8.51305 40.9819 7.19129 40.4543 6.05114 39.6371C4.911 38.82 3.98667 37.7378 3.35783 36.4839L4.52545 35.8984C5.05934 36.9629 5.84409 37.8817 6.81208 38.5754C7.78006 39.2692 8.90224 39.7171 10.0819 39.8807C11.2615 40.0442 12.4632 39.9184 13.5834 39.5142C14.7037 39.1099 15.7088 38.4393 16.5121 37.5602C17.3155 36.681 17.893 35.6197 18.1949 34.4677C18.4968 33.3156 18.514 32.1075 18.245 30.9473C17.9761 29.7872 17.429 28.7098 16.651 27.8081C15.873 26.9065 14.8874 26.2075 13.7792 25.7715L14.2574 24.5559Z" fill="white"/>
<path d="M13.7685 31.6505C11.4345 31.9345 9.07935 31.3255 7.17563 29.9455C5.27191 28.5656 3.96039 26.5168 3.50419 24.2103C3.04798 21.9037 3.48083 19.5099 4.71591 17.5092C5.95098 15.5084 7.89692 14.0487 10.1633 13.4228L10.5389 14.783C8.6158 15.3141 6.96461 16.5527 5.91661 18.2504C4.8686 19.9481 4.50131 21.9793 4.88842 23.9365C5.27553 25.8937 6.38839 27.6321 8.00377 28.8031C9.61914 29.974 11.6175 30.4908 13.598 30.2498L13.7685 31.6505Z" fill="white"/>
<path d="M48.205 30.9606C47.7747 33.6844 46.4343 36.182 44.4024 38.0463C42.3705 39.9105 39.7669 41.0313 37.0162 41.226C34.2656 41.4207 31.5301 40.6778 29.2558 39.1184C26.9816 37.5589 25.3028 35.275 24.4931 32.639L25.732 32.2585C26.4556 34.6144 27.9561 36.6557 29.9887 38.0495C32.0214 39.4433 34.4663 40.1073 36.9247 39.9333C39.3832 39.7593 41.7102 38.7575 43.5262 37.0913C45.3423 35.4251 46.5403 33.1928 46.9248 30.7584L48.205 30.9606Z" fill="white"/>
<path d="M56.5169 17.0754C54.6403 17.5908 52.9126 18.5439 51.4756 19.8563C50.0386 21.1688 48.9333 22.8032 48.2503 24.6255C47.5672 26.4478 47.326 28.4061 47.5463 30.3397C47.7666 32.2734 48.4422 34.1272 49.5177 35.7491C50.5932 37.3711 52.0379 38.715 53.7333 39.6705C55.4287 40.626 57.3265 41.166 59.2709 41.2461C61.2154 41.3262 63.1512 40.9441 64.9194 40.1312C66.6876 39.3184 68.238 38.0979 69.4432 36.5699L68.411 35.7557C67.3345 37.1206 65.9497 38.2108 64.3703 38.9368C62.7909 39.6629 61.0619 40.0041 59.325 39.9326C57.5882 39.861 55.8931 39.3787 54.3787 38.5252C52.8644 37.6718 51.574 36.4714 50.6133 35.0227C49.6527 33.5739 49.0492 31.918 48.8525 30.1909C48.6557 28.4638 48.8712 26.7146 49.4812 25.0869C50.0913 23.4592 51.0786 21.9993 52.3622 20.827C53.6457 19.6547 55.1889 18.8034 56.8651 18.343L56.5169 17.0754Z" fill="white"/>
<path d="M87.6645 36.9108C85.8869 38.9235 83.4949 40.2936 80.8594 40.8084C78.2239 41.3232 75.4922 40.9541 73.0878 39.7583C70.6835 38.5625 68.7408 36.6068 67.5612 34.1944C66.3815 31.7821 66.0307 29.048 66.5632 26.416C67.0958 23.784 68.4818 21.4013 70.5064 19.6372C72.531 17.8732 75.0811 16.8265 77.7612 16.6593C80.4413 16.4922 83.1017 17.214 85.3298 18.7129C87.5579 20.2117 89.2292 22.4038 90.0845 24.9493L88.8125 25.3767C88.0512 23.1113 86.5638 21.1603 84.5808 19.8263C82.5978 18.4924 80.23 17.8499 77.8447 17.9987C75.4595 18.1474 73.1899 19.079 71.388 20.649C69.586 22.219 68.3525 24.3396 67.8785 26.6821C67.4046 29.0246 67.7168 31.458 68.7667 33.6049C69.8166 35.7519 71.5455 37.4925 73.6854 38.5568C75.8253 39.621 78.2565 39.9495 80.6021 39.4913C82.9477 39.0331 85.0766 37.8138 86.6586 36.0225L87.6645 36.9108Z" fill="white"/>
<path d="M88.7821 27.643C88.9527 25.905 89.4946 24.2238 90.371 22.7132C91.2474 21.2026 92.4379 19.8978 93.862 18.8869C95.2862 17.8761 96.9107 17.1828 98.6259 16.8539C100.341 16.5251 102.107 16.5683 103.804 16.9807L103.487 18.2847C101.977 17.9177 100.405 17.8792 98.8786 18.1719C97.3521 18.4646 95.9062 19.0816 94.6387 19.9812C93.3713 20.8809 92.3117 22.0422 91.5317 23.3866C90.7517 24.7311 90.2695 26.2273 90.1176 27.7742L88.7821 27.643Z" fill="white"/>
<path d="M127.761 36.9108C125.983 38.9235 123.591 40.2936 120.956 40.8084C118.32 41.3232 115.589 40.9541 113.184 39.7583C110.78 38.5625 108.837 36.6068 107.658 34.1944C106.478 31.7821 106.127 29.048 106.66 26.416C107.192 23.784 108.578 21.4013 110.603 19.6372C112.627 17.8732 115.178 16.8265 117.858 16.6593C120.538 16.4922 123.198 17.214 125.426 18.7129C127.654 20.2117 129.326 22.4038 130.181 24.9493L128.909 25.3767C128.148 23.1113 126.66 21.1603 124.677 19.8263C122.694 18.4924 120.326 17.8499 117.941 17.9987C115.556 18.1474 113.286 19.079 111.484 20.649C109.682 22.219 108.449 24.3396 107.975 26.6821C107.501 29.0246 107.813 31.458 108.863 33.6049C109.913 35.7519 111.642 37.4925 113.782 38.5568C115.922 39.621 118.353 39.9495 120.698 39.4913C123.044 39.0331 125.173 37.8138 126.755 36.0225L127.761 36.9108Z" fill="white"/>
<circle cx="12.8649" cy="13.7522" r="2.88352" fill="white"/>
<circle cx="24.1772" cy="29.9442" r="2.88352" fill="white"/>
<circle cx="59.2231" cy="16.8575" r="2.88352" fill="white"/>
<circle cx="88.0582" cy="34.6022" r="2.88352" fill="white"/>
<circle cx="128.155" cy="34.6022" r="2.88352" fill="white"/>
<circle cx="106.247" cy="18.4102" r="2.88352" fill="white"/>
<circle cx="2.88352" cy="33.715" r="2.88352" fill="white"/>
<rect x="47.0236" width="1.33085" height="41.0347" fill="white"/>
</svg>
