<svg width="93" height="22" viewBox="0 0 93 22" fill="none" xmlns="http://www.w3.org/2000/svg">
<line x1="1" y1="-1" x2="49" y2="-1" transform="matrix(-1 0 0 1 50 14.786)" stroke="#7158E2" stroke-opacity="0.74" stroke-width="2" stroke-linecap="round" stroke-linejoin="round"/>
<line x1="1" y1="-1" x2="14" y2="-1" transform="matrix(0.5 -0.866025 -0.866025 -0.5 27.8949 20.4967)" stroke="#7158E2" stroke-opacity="0.74" stroke-width="2" stroke-linecap="round" stroke-linejoin="round"/>
<line x1="1" y1="-1" x2="19" y2="-1" transform="matrix(0.766044 -0.642788 -0.642788 -0.766044 47.8489 12.8557)" stroke="#7158E2" stroke-opacity="0.74" stroke-width="2" stroke-linecap="round" stroke-linejoin="round"/>
<line x1="1" y1="-1" x2="24" y2="-1" transform="matrix(-1 0 0 1 93 14.786)" stroke="#7158E2" stroke-opacity="0.74" stroke-width="2" stroke-linecap="round" stroke-linejoin="round"/>
<line x1="1" y1="-1" x2="14" y2="-1" transform="matrix(0.5 -0.866025 -0.866025 -0.5 21.8949 20.4967)" stroke="#7158E2" stroke-opacity="0.74" stroke-width="2" stroke-linecap="round" stroke-linejoin="round"/>
<line x1="1" y1="-1" x2="14" y2="-1" transform="matrix(0.5 -0.866025 -0.866025 -0.5 15.8949 20.4967)" stroke="#7158E2" stroke-opacity="0.74" stroke-width="2" stroke-linecap="round" stroke-linejoin="round"/>
<circle r="2.5" transform="matrix(-1 0 0 1 66.5 14.286)" fill="white"/>
<circle r="1.5" transform="matrix(-1 0 0 1 66.5 14.286)" stroke="#7158E2" stroke-opacity="0.74" stroke-width="2"/>
</svg>
